<mxfile host="app.diagrams.net" modified="2023-12-15T22:18:32.755Z" agent="Mozilla/5.0 (Windows NT 10.0; Win64; x64) AppleWebKit/537.36 (KHTML, like Gecko) Chrome/120.0.0.0 Safari/537.36" version="22.1.11" etag="mmht_0PLWvOvAgruhI3b" type="github">
  <diagram name="Page-1" id="7qWjj9Xl2oJeG7Bt-J9w">
    <mxGraphModel>
      <root>
        <mxCell id="0" />
        <mxCell id="1" parent="0" />
      </root>
    </mxGraphModel>
  </diagram>
</mxfile>
